<?xml version="1.0" standalone="no"?>
<!DOCTYPE svg PUBLIC "-//W3C//DTD SVG 20010904//EN"
 "http://www.w3.org/TR/2001/REC-SVG-20010904/DTD/svg10.dtd">
<svg version="1.0" xmlns="http://www.w3.org/2000/svg"
 width="730.000000pt" height="730.000000pt" viewBox="0 0 730.000000 730.000000"
 preserveAspectRatio="xMidYMid meet">
<metadata>
Created by potrace 1.14, written by Peter Selinger 2001-2017
</metadata>
<g transform="translate(0.000000,730.000000) scale(0.100000,-0.100000)"
fill="#000000" stroke="none">
<path d="M590 4060 c0 -282 2 -312 18 -342 41 -71 87 -143 94 -146 4 -2 8 -8
8 -14 0 -6 14 -32 32 -59 l31 -49 671 2 671 3 3 458 2 457 -160 0 -160 0 0
-300 0 -300 -445 0 -445 0 0 300 0 300 -160 0 -160 0 0 -310z"/>
<path d="M2783 4340 c-9 -16 -20 -30 -24 -30 -7 0 -22 -39 -20 -52 1 -5 -3 -8
-9 -8 -5 0 -10 -6 -10 -14 0 -8 -7 -16 -15 -20 -8 -3 -15 -10 -15 -16 0 -6
-13 -30 -29 -53 -15 -23 -33 -52 -40 -64 l-12 -23 624 0 625 0 12 30 c7 17 16
30 21 30 5 0 16 15 24 33 22 46 61 109 78 127 8 8 18 25 21 38 4 12 12 22 17
22 5 0 9 7 9 15 0 13 -75 15 -619 15 l-620 0 -18 -30z"/>
<path d="M4280 4355 c0 -8 -3 -15 -8 -15 -4 0 -23 -26 -42 -57 -18 -32 -40
-64 -47 -71 -7 -7 -13 -18 -13 -23 0 -12 -92 -153 -102 -157 -5 -2 -8 -12 -8
-23 0 -11 -6 -22 -14 -25 -8 -3 -17 -16 -20 -30 -4 -13 -11 -24 -17 -24 -6 0
-8 -4 -5 -9 3 -5 -6 -21 -19 -35 -14 -15 -23 -32 -20 -37 4 -5 1 -9 -5 -9 -6
0 -18 -15 -26 -32 -25 -54 -72 -128 -89 -140 -5 -4 -6 -8 -1 -8 5 0 1 -9 -10
-21 -18 -20 -34 -46 -100 -161 -15 -27 -31 -48 -36 -48 -4 0 -8 -5 -8 -11 0
-6 -11 -25 -25 -43 -14 -18 -25 -37 -25 -42 0 -5 -24 -45 -53 -89 l-52 -80
-423 -3 c-371 -2 -422 0 -422 13 0 8 5 15 10 15 6 0 10 7 10 15 0 8 5 15 10
15 6 0 10 5 10 10 0 6 5 16 10 23 21 24 90 138 90 147 0 6 5 10 11 10 5 0 8 4
5 9 -3 5 1 12 10 15 8 3 12 10 9 16 -4 7 93 10 287 10 l293 0 48 71 c26 39 47
75 47 80 0 5 4 9 9 9 5 0 13 9 16 21 4 11 20 40 36 64 16 24 29 46 29 49 0 3
-273 6 -608 6 l-607 0 -20 -37 c-11 -21 -26 -44 -32 -51 -7 -7 -13 -19 -13
-27 0 -7 -3 -15 -7 -17 -11 -4 -53 -65 -53 -75 0 -5 -11 -25 -25 -45 -14 -20
-25 -39 -25 -42 0 -4 61 -6 135 -6 74 0 135 -4 135 -8 0 -5 -9 -17 -20 -27
-11 -10 -18 -20 -16 -23 3 -2 -11 -25 -30 -50 -19 -26 -38 -52 -42 -57 -4 -6
-18 -32 -30 -57 -13 -25 -33 -56 -43 -67 -11 -12 -17 -26 -14 -31 3 -6 1 -10
-5 -10 -6 0 -15 -10 -21 -22 -20 -47 -56 -98 -62 -91 -4 3 -7 -2 -7 -13 0 -10
-9 -30 -20 -44 -11 -14 -20 -31 -20 -37 0 -7 -4 -13 -10 -13 -5 0 -10 -7 -10
-15 0 -8 -4 -15 -10 -15 -5 0 -10 -4 -10 -10 0 -7 269 -10 786 -10 777 0 786
0 791 20 3 11 9 20 13 20 5 0 12 10 16 22 4 13 12 27 19 33 7 5 23 30 36 55
13 25 32 54 42 64 9 11 22 35 29 53 7 18 18 33 25 33 7 0 13 9 13 20 0 11 7
23 15 26 8 4 15 13 15 22 0 18 52 102 63 102 5 0 6 4 3 9 -3 4 3 16 14 26 11
10 20 22 20 27 0 12 72 122 82 126 5 2 8 8 8 14 0 5 13 28 28 51 15 23 38 63
51 89 13 26 30 49 38 52 8 3 12 10 9 15 -3 5 1 14 9 21 8 7 15 19 15 27 0 13
3 13 15 3 8 -7 15 -18 15 -26 0 -7 6 -19 13 -26 6 -8 18 -25 26 -38 8 -14 43
-71 78 -127 l63 -103 -85 0 c-55 0 -85 -4 -85 -11 0 -6 -13 -31 -30 -56 -16
-24 -30 -48 -30 -54 0 -5 -4 -9 -10 -9 -5 0 -10 -5 -10 -10 0 -6 -9 -20 -20
-32 -11 -12 -20 -28 -20 -35 0 -7 -4 -13 -10 -13 -5 0 -10 -6 -10 -12 0 -7 -9
-24 -20 -38 -40 -51 -41 -51 257 -50 l278 1 10 -23 c5 -13 12 -25 16 -28 3 -3
19 -27 35 -55 16 -27 36 -57 44 -65 9 -9 27 -39 40 -68 l25 -52 163 0 162 0 0
750 0 750 -155 0 -155 0 0 -467 c0 -447 -1 -466 -17 -443 -10 14 -17 29 -15
33 1 4 -9 20 -23 35 -14 15 -25 32 -25 39 0 7 -4 13 -10 13 -5 0 -10 7 -10 15
0 9 -7 18 -15 21 -8 4 -15 12 -15 19 0 8 -6 20 -12 27 -7 7 -24 35 -37 61 -13
26 -28 47 -32 47 -5 0 -9 6 -9 14 0 8 -6 21 -12 28 -19 21 -37 50 -51 81 -6
15 -15 27 -19 27 -4 0 -8 7 -8 15 0 8 -5 15 -11 15 -5 0 -7 5 -4 10 3 6 1 10
-4 10 -6 0 -11 6 -11 14 0 8 -3 16 -7 18 -11 4 -63 86 -63 98 0 5 -4 10 -10
10 -5 0 -10 6 -10 13 0 7 -9 23 -20 35 -11 12 -20 26 -20 32 0 6 -9 20 -20 32
-11 12 -26 34 -32 50 -7 15 -17 28 -21 28 -5 0 -6 4 -3 8 3 5 -4 18 -14 30
-11 12 -20 26 -20 32 0 5 -4 10 -10 10 -5 0 -10 -7 -10 -15z"/>
<path d="M6078 4065 l-3 -296 -409 -2 c-279 -1 -410 -5 -413 -13 -2 -6 20 -46
49 -90 29 -43 58 -90 64 -104 7 -14 26 -44 43 -67 l31 -43 320 0 320 0 0 -295
0 -295 155 0 155 0 0 750 0 750 -155 0 -155 0 -2 -295z"/>
<path d="M590 3010 l0 -160 678 0 678 0 12 28 c13 29 74 129 91 149 6 7 11 15
11 18 0 4 14 27 31 51 17 25 28 52 25 60 -5 12 -112 14 -766 14 l-760 0 0
-160z"/>
</g>
</svg>
